<mxfile host="app.diagrams.net" modified="2023-02-25T10:04:09.256Z" agent="5.0 (Windows)" etag="TtEeGaUdsUJmBu63_-NX" version="20.8.23" type="github">
  <diagram name="Page-1" id="13e1069c-82ec-6db2-03f1-153e76fe0fe0">
    <mxGraphModel dx="1050" dy="540" grid="1" gridSize="10" guides="1" tooltips="1" connect="1" arrows="1" fold="1" page="1" pageScale="1" pageWidth="1100" pageHeight="850" background="none" math="0" shadow="0">
      <root>
        <mxCell id="0" />
        <mxCell id="1" parent="0" />
        <mxCell id="JXTYRfMc1shDSXfLU67B-1" value="ONES " style="shape=umlLifeline;perimeter=lifelinePerimeter;whiteSpace=wrap;html=1;container=1;dropTarget=0;collapsible=0;recursiveResize=0;outlineConnect=0;portConstraint=eastwest;newEdgeStyle={&quot;edgeStyle&quot;:&quot;elbowEdgeStyle&quot;,&quot;elbow&quot;:&quot;vertical&quot;,&quot;curved&quot;:0,&quot;rounded&quot;:0};" vertex="1" parent="1">
          <mxGeometry x="190" y="20" width="100" height="460" as="geometry" />
        </mxCell>
        <mxCell id="JXTYRfMc1shDSXfLU67B-2" value="ATOS" style="shape=umlLifeline;perimeter=lifelinePerimeter;whiteSpace=wrap;html=1;container=1;dropTarget=0;collapsible=0;recursiveResize=0;outlineConnect=0;portConstraint=eastwest;newEdgeStyle={&quot;edgeStyle&quot;:&quot;elbowEdgeStyle&quot;,&quot;elbow&quot;:&quot;vertical&quot;,&quot;curved&quot;:0,&quot;rounded&quot;:0};" vertex="1" parent="1">
          <mxGeometry x="660" y="20" width="100" height="460" as="geometry" />
        </mxCell>
        <mxCell id="JXTYRfMc1shDSXfLU67B-3" value="&lt;div&gt;创建FTP服务端&lt;/div&gt;&lt;div&gt;启动RPCServer&lt;br&gt;&lt;/div&gt;" style="html=1;verticalAlign=bottom;endArrow=block;edgeStyle=elbowEdgeStyle;elbow=vertical;curved=0;rounded=0;" edge="1" parent="1" source="JXTYRfMc1shDSXfLU67B-1" target="JXTYRfMc1shDSXfLU67B-2">
          <mxGeometry width="80" relative="1" as="geometry">
            <mxPoint x="250" y="120" as="sourcePoint" />
            <mxPoint x="330" y="120" as="targetPoint" />
            <Array as="points">
              <mxPoint x="410" y="90" />
              <mxPoint x="240" y="100" />
            </Array>
          </mxGeometry>
        </mxCell>
        <mxCell id="JXTYRfMc1shDSXfLU67B-5" value="ATOS升级过程状态通知" style="html=1;verticalAlign=bottom;endArrow=block;edgeStyle=elbowEdgeStyle;elbow=vertical;curved=0;rounded=0;" edge="1" parent="1">
          <mxGeometry x="-0.066" y="-10" width="80" relative="1" as="geometry">
            <mxPoint x="709.5" y="280" as="sourcePoint" />
            <mxPoint x="239.5" y="280" as="targetPoint" />
            <Array as="points">
              <mxPoint x="600" y="280" />
              <mxPoint x="240" y="150" />
              <mxPoint x="410" y="140" />
            </Array>
            <mxPoint as="offset" />
          </mxGeometry>
        </mxCell>
        <mxCell id="JXTYRfMc1shDSXfLU67B-6" value="启动升级进程" style="html=1;verticalAlign=bottom;endArrow=block;edgeStyle=elbowEdgeStyle;elbow=vertical;curved=0;rounded=0;" edge="1" parent="1">
          <mxGeometry width="80" relative="1" as="geometry">
            <mxPoint x="240" y="130" as="sourcePoint" />
            <mxPoint x="710" y="130" as="targetPoint" />
            <Array as="points">
              <mxPoint x="410" y="130" />
              <mxPoint x="240" y="140" />
            </Array>
          </mxGeometry>
        </mxCell>
        <mxCell id="JXTYRfMc1shDSXfLU67B-10" value="ATOS升级完成，通知上位" style="html=1;verticalAlign=bottom;endArrow=block;edgeStyle=elbowEdgeStyle;elbow=vertical;curved=0;rounded=0;" edge="1" parent="1">
          <mxGeometry x="-0.066" y="-10" width="80" relative="1" as="geometry">
            <mxPoint x="710" y="340" as="sourcePoint" />
            <mxPoint x="240" y="340" as="targetPoint" />
            <Array as="points">
              <mxPoint x="600" y="340" />
              <mxPoint x="240" y="210" />
              <mxPoint x="410" y="200" />
            </Array>
            <mxPoint as="offset" />
          </mxGeometry>
        </mxCell>
        <mxCell id="JXTYRfMc1shDSXfLU67B-11" value="FTPStart，通知ATOS升级" style="html=1;verticalAlign=bottom;endArrow=block;edgeStyle=elbowEdgeStyle;elbow=vertical;curved=0;rounded=0;" edge="1" parent="1">
          <mxGeometry width="80" relative="1" as="geometry">
            <mxPoint x="240" y="190" as="sourcePoint" />
            <mxPoint x="710" y="190" as="targetPoint" />
            <Array as="points">
              <mxPoint x="410" y="190" />
              <mxPoint x="240" y="200" />
            </Array>
          </mxGeometry>
        </mxCell>
      </root>
    </mxGraphModel>
  </diagram>
</mxfile>
